<svg width="18" height="18" viewBox="0 0 18 18" fill="none" xmlns="http://www.w3.org/2000/svg">
<path d="M8.18506 0.866667C8.34959 0.511109 8.85036 0.511109 9.01489 0.866668L9.94908 2.8855C10.0658 3.13767 10.375 3.22936 10.6082 3.08092L12.4751 1.89251C12.8039 1.68321 13.2252 1.95657 13.1732 2.3455L12.8781 4.55379C12.8412 4.82962 13.0523 5.07559 13.328 5.078L15.5349 5.09733C15.9235 5.10074 16.1316 5.56066 15.8796 5.85948L14.4489 7.55612C14.2701 7.76804 14.316 8.09018 14.5466 8.24269L16.3928 9.46362C16.718 9.67865 16.6467 10.1791 16.2747 10.293L14.1626 10.9393C13.8988 11.02 13.7649 11.316 13.8772 11.5702L14.7766 13.6051C14.935 13.9635 14.6071 14.3456 14.2332 14.2383L12.1103 13.6291C11.8451 13.553 11.574 13.729 11.5324 14.0041L11.1993 16.2069C11.1407 16.5949 10.6602 16.7373 10.4031 16.443L8.94347 14.7716C8.76114 14.5629 8.43881 14.5629 8.25648 14.7716L6.79682 16.443C6.53974 16.7373 6.05926 16.5949 6.0006 16.2069L5.66758 14.0041C5.62598 13.729 5.35481 13.553 5.08965 13.6291L2.96678 14.2383C2.5929 14.3456 2.26496 13.9635 2.42336 13.6051L3.32271 11.5702C3.43504 11.316 3.30114 11.02 3.03732 10.9393L0.925241 10.293C0.553259 10.1791 0.481993 9.67865 0.807145 9.46362L2.65333 8.24269C2.88393 8.09018 2.92981 7.76804 2.7511 7.55612L1.32038 5.85948C1.0684 5.56066 1.27642 5.10074 1.6651 5.09733L3.87197 5.078C4.14763 5.07559 4.35871 4.82962 4.32185 4.55379L4.02673 2.34549C3.97476 1.95657 4.39603 1.68321 4.72483 1.89251L6.59172 3.08092C6.82491 3.22936 7.13419 3.13767 7.25088 2.8855L8.18506 0.866667Z" fill="#80FF8B"/>
<path d="M6.73539 9.42817L7.65433 11.1181C7.68911 11.1821 7.78013 11.1821 7.81491 11.1181L10.4646 6.24542M6.59172 3.08092L4.72483 1.89251C4.39603 1.68321 3.97476 1.95657 4.02673 2.34549L4.32185 4.55379C4.35871 4.82962 4.14763 5.07559 3.87197 5.078L1.6651 5.09733C1.27642 5.10074 1.0684 5.56066 1.32038 5.85948L2.7511 7.55612C2.92981 7.76804 2.88393 8.09018 2.65333 8.24269L0.807145 9.46362C0.481993 9.67865 0.553259 10.1791 0.925241 10.293L3.03732 10.9393C3.30114 11.02 3.43504 11.316 3.32271 11.5702L2.42336 13.6051C2.26496 13.9635 2.5929 14.3456 2.96678 14.2383L5.08965 13.6291C5.35481 13.553 5.62598 13.729 5.66758 14.0041L6.0006 16.2069C6.05926 16.5949 6.53974 16.7373 6.79682 16.443L8.25648 14.7716C8.43881 14.5629 8.76114 14.5629 8.94347 14.7716L10.4031 16.443C10.6602 16.7373 11.1407 16.5949 11.1993 16.2069L11.5324 14.0041C11.574 13.729 11.8451 13.553 12.1103 13.6291L14.2332 14.2383C14.6071 14.3456 14.935 13.9635 14.7766 13.6051L13.8772 11.5702C13.7649 11.316 13.8988 11.02 14.1626 10.9393L16.2747 10.293C16.6467 10.1791 16.718 9.67865 16.3928 9.46362L14.5466 8.24269C14.316 8.09018 14.2701 7.76804 14.4489 7.55612L15.8796 5.85948C16.1316 5.56066 15.9235 5.10074 15.5349 5.09733L13.328 5.078C13.0523 5.07559 12.8412 4.82962 12.8781 4.55379L13.1732 2.3455C13.2252 1.95657 12.8039 1.68321 12.4751 1.89251L10.6082 3.08092C10.375 3.22936 10.0658 3.13767 9.94908 2.8855L9.01489 0.866668C8.85036 0.511109 8.34959 0.511109 8.18506 0.866667L7.25088 2.8855C7.13419 3.13767 6.82491 3.22936 6.59172 3.08092Z" stroke="#292929" stroke-width="1.2" stroke-linecap="round"/>
</svg>
