<svg width="18" height="18" viewBox="0 0 18 18" fill="none" xmlns="http://www.w3.org/2000/svg">
<path d="M16.6 8.6C16.6 13.0183 13.0183 16.6 8.59998 16.6C4.1817 16.6 0.599976 13.0183 0.599976 8.6C0.599976 4.18172 4.1817 0.6 8.59998 0.6C13.0183 0.6 16.6 4.18172 16.6 8.6Z" fill="#80FF8B"/>
<path d="M5.39998 10.17L6.74389 12.4811C6.77474 12.5341 6.85136 12.5341 6.88221 12.4811L11 5.4M16.6 8.6C16.6 13.0183 13.0183 16.6 8.59998 16.6C4.1817 16.6 0.599976 13.0183 0.599976 8.6C0.599976 4.18172 4.1817 0.6 8.59998 0.6C13.0183 0.6 16.6 4.18172 16.6 8.6Z" stroke="#1E1E1E" stroke-width="1.2" stroke-linecap="round"/>
</svg>
