<svg width="47" height="48" viewBox="0 0 47 48" fill="none" xmlns="http://www.w3.org/2000/svg">
<rect x="0.5" y="0.5" width="46" height="47" rx="19.5" fill="#292929" fill-opacity="0.7"/>
<rect x="0.5" y="0.5" width="46" height="47" rx="19.5" stroke="black"/>
<path d="M23.0244 11.582C23.1741 11.1214 23.8259 11.1214 23.9756 11.582L26.2803 18.6738C26.4811 19.2916 27.0565 19.7098 27.7061 19.71H35.1641C35.6479 19.7103 35.8491 20.3295 35.458 20.6143L29.4248 24.998C28.8991 25.38 28.6791 26.0568 28.8799 26.6748L31.1846 33.7676C31.3337 34.2279 30.8067 34.6105 30.415 34.3262L24.3818 29.9434C23.8561 29.5614 23.1439 29.5614 22.6182 29.9434L16.585 34.3262C16.1933 34.6105 15.6663 34.2279 15.8154 33.7676L18.1201 26.6748C18.3209 26.0568 18.1009 25.38 17.5752 24.998L11.542 20.6143C11.1509 20.3295 11.352 19.7103 11.8359 19.71H19.2939C19.9435 19.7098 20.5189 19.2916 20.7197 18.6738L23.0244 11.582Z" fill="#292929" stroke="black"/>
</svg>
