<svg width="14" height="13" viewBox="0 0 14 13" fill="none" xmlns="http://www.w3.org/2000/svg">
<mask id="path-1-outside-1_224_79" maskUnits="userSpaceOnUse" x="-0.752014" y="-0.504028" width="15" height="14" fill="black">
<rect fill="white" x="-0.752014" y="-0.504028" width="15" height="14"/>
<path d="M6.88799 11.816C5.13865 11.816 3.70932 11.304 2.59999 10.28C1.53332 9.2133 0.999986 7.9333 0.999986 6.43997C0.999986 4.90397 1.53332 3.62397 2.59999 2.59997C3.70932 1.5333 5.13865 0.999971 6.88799 0.999971C8.59465 0.999971 9.98132 1.5333 11.048 2.59997C12.1147 3.62397 12.648 4.90397 12.648 6.43997C12.648 7.9333 12.1147 9.2133 11.048 10.28C9.98132 11.304 8.59465 11.816 6.88799 11.816Z"/>
</mask>
<path d="M6.88799 11.816C5.13865 11.816 3.70932 11.304 2.59999 10.28C1.53332 9.2133 0.999986 7.9333 0.999986 6.43997C0.999986 4.90397 1.53332 3.62397 2.59999 2.59997C3.70932 1.5333 5.13865 0.999971 6.88799 0.999971C8.59465 0.999971 9.98132 1.5333 11.048 2.59997C12.1147 3.62397 12.648 4.90397 12.648 6.43997C12.648 7.9333 12.1147 9.2133 11.048 10.28C9.98132 11.304 8.59465 11.816 6.88799 11.816Z" fill="#80FF8B"/>
<path d="M2.59999 10.28L1.89288 10.9871L1.90702 11.0012L1.92171 11.0148L2.59999 10.28ZM2.59999 2.59997L3.29252 3.32136L3.29309 3.3208L2.59999 2.59997ZM11.048 2.59997L10.3409 3.30708L10.3481 3.31429L10.3555 3.32136L11.048 2.59997ZM11.048 10.28L11.7405 11.0014L11.7479 10.9943L11.7551 10.9871L11.048 10.28ZM6.88799 11.816V10.816C5.34739 10.816 4.17376 10.3718 3.27827 9.54517L2.59999 10.28L1.92171 11.0148C3.24488 12.2362 4.92991 12.816 6.88799 12.816V11.816ZM2.59999 10.28L3.30709 9.57286C2.42582 8.69159 1.99999 7.66508 1.99999 6.43997H0.999986H-1.40667e-05C-1.40667e-05 8.20153 0.640816 9.73502 1.89288 10.9871L2.59999 10.28ZM0.999986 6.43997H1.99999C1.99999 5.1644 2.43068 4.14872 3.29252 3.32136L2.59999 2.59997L1.90745 1.87859C0.635958 3.09922 -1.40667e-05 4.64354 -1.40667e-05 6.43997H0.999986ZM2.59999 2.59997L3.29309 3.3208C4.19031 2.4581 5.35887 1.99997 6.88799 1.99997V0.999969V-3.05176e-05C4.91844 -3.05176e-05 3.22833 0.608509 1.90688 1.87914L2.59999 2.59997ZM6.88799 0.999969V1.99997C8.36741 1.99997 9.48699 2.45319 10.3409 3.30708L11.048 2.59997L11.7551 1.89286C10.4756 0.613419 8.8219 -3.05176e-05 6.88799 -3.05176e-05V0.999969ZM11.048 2.59997L10.3555 3.32136C11.2173 4.14872 11.648 5.1644 11.648 6.43997H12.648H13.648C13.648 4.64354 13.012 3.09922 11.7405 1.87859L11.048 2.59997ZM12.648 6.43997H11.648C11.648 7.66508 11.2221 8.69159 10.3409 9.57286L11.048 10.28L11.7551 10.9871C13.0072 9.73502 13.648 8.20153 13.648 6.43997H12.648ZM11.048 10.28L10.3555 9.55859C9.5038 10.3762 8.37936 10.816 6.88799 10.816V11.816V12.816C8.80995 12.816 10.4588 12.2318 11.7405 11.0014L11.048 10.28Z" fill="#1E1E1E" mask="url(#path-1-outside-1_224_79)"/>
</svg>
