<svg width="20" height="20" viewBox="0 0 20 20" fill="none" xmlns="http://www.w3.org/2000/svg">
<path d="M18.6 9.60001C18.6 14.5706 14.5706 18.6 9.60001 18.6C4.62944 18.6 0.600006 14.5706 0.600006 9.60001C0.600006 4.62944 4.62944 0.600006 9.60001 0.600006C14.5706 0.600006 18.6 4.62944 18.6 9.60001Z" fill="#80FF8B"/>
<path d="M13.0125 7.35001C13.0125 7.01864 12.7439 6.75001 12.4125 6.75001H7.01251C6.68114 6.75001 6.41251 7.01864 6.41251 7.35001C6.41251 7.68138 6.68114 7.95001 7.01251 7.95001H11.8125V12.75C11.8125 13.0814 12.0811 13.35 12.4125 13.35C12.7439 13.35 13.0125 13.0814 13.0125 12.75V7.35001ZM18.6 9.60001H18C18 14.2392 14.2392 18 9.60001 18V18.6V19.2C14.9019 19.2 19.2 14.9019 19.2 9.60001H18.6ZM9.60001 18.6V18C4.96081 18 1.20001 14.2392 1.20001 9.60001H0.600006H6.07967e-06C6.07967e-06 14.9019 4.29807 19.2 9.60001 19.2V18.6ZM0.600006 9.60001H1.20001C1.20001 4.96081 4.96081 1.20001 9.60001 1.20001V0.600006V6.07967e-06C4.29807 6.07967e-06 6.07967e-06 4.29807 6.07967e-06 9.60001H0.600006ZM9.60001 0.600006V1.20001C14.2392 1.20001 18 4.96081 18 9.60001H18.6H19.2C19.2 4.29807 14.9019 6.07967e-06 9.60001 6.07967e-06V0.600006ZM7.35001 12.4125L7.77427 12.8368L12.8368 7.77427L12.4125 7.35001L11.9882 6.92574L6.92574 11.9882L7.35001 12.4125Z" fill="#1E1E1E"/>
</svg>
