<svg width="18" height="18" viewBox="0 0 18 18" fill="none" xmlns="http://www.w3.org/2000/svg">
<mask id="path-1-inside-1_204_261" fill="white">
<path d="M18 9C18 13.9706 13.9706 18 9 18C4.02944 18 0 13.9706 0 9C0 4.02944 4.02944 0 9 0C13.9706 0 18 4.02944 18 9Z"/>
</mask>
<path d="M18 9C18 13.9706 13.9706 18 9 18C4.02944 18 0 13.9706 0 9C0 4.02944 4.02944 0 9 0C13.9706 0 18 4.02944 18 9Z" fill="#80FF8B"/>
<path d="M12.3625 6.75C12.3625 6.44624 12.1163 6.2 11.8125 6.2H6.8625C6.55874 6.2 6.3125 6.44624 6.3125 6.75C6.3125 7.05376 6.55874 7.3 6.8625 7.3H11.2625V11.7C11.2625 12.0038 11.5087 12.25 11.8125 12.25C12.1163 12.25 12.3625 12.0038 12.3625 11.7V6.75ZM6.75 11.8125L7.13891 12.2014L12.2014 7.13891L11.8125 6.75L11.4236 6.36109L6.36109 11.4236L6.75 11.8125ZM18 9H16.9C16.9 13.363 13.363 16.9 9 16.9V18V19.1C14.5781 19.1 19.1 14.5781 19.1 9H18ZM9 18V16.9C4.63695 16.9 1.1 13.363 1.1 9H0H-1.1C-1.1 14.5781 3.42192 19.1 9 19.1V18ZM0 9H1.1C1.1 4.63695 4.63695 1.1 9 1.1V0V-1.1C3.42192 -1.1 -1.1 3.42192 -1.1 9H0ZM9 0V1.1C13.363 1.1 16.9 4.63695 16.9 9H18H19.1C19.1 3.42192 14.5781 -1.1 9 -1.1V0Z" fill="#1E1E1E" mask="url(#path-1-inside-1_204_261)"/>
</svg>
