<svg width="24" height="24" viewBox="0 0 24 24" fill="none" xmlns="http://www.w3.org/2000/svg">
<mask id="path-1-inside-1_192_189" fill="white">
<path d="M24 12C24 18.6274 18.6274 24 12 24C5.37258 24 0 18.6274 0 12C0 5.37258 5.37258 0 12 0C18.6274 0 24 5.37258 24 12Z"/>
</mask>
<path d="M24 12C24 18.6274 18.6274 24 12 24C5.37258 24 0 18.6274 0 12C0 5.37258 5.37258 0 12 0C18.6274 0 24 5.37258 24 12Z" fill="#80FF8B"/>
<path d="M16.3 9C16.3 8.69624 16.0538 8.45 15.75 8.45H10.8C10.4962 8.45 10.25 8.69624 10.25 9C10.25 9.30376 10.4962 9.55 10.8 9.55H15.2V13.95C15.2 14.2538 15.4462 14.5 15.75 14.5C16.0538 14.5 16.3 14.2538 16.3 13.95V9ZM9 15.75L9.38891 16.1389L16.1389 9.38891L15.75 9L15.3611 8.61109L8.61109 15.3611L9 15.75ZM24 12H22.9C22.9 18.0199 18.0199 22.9 12 22.9V24V25.1C19.2349 25.1 25.1 19.2349 25.1 12H24ZM12 24V22.9C5.9801 22.9 1.1 18.0199 1.1 12H0H-1.1C-1.1 19.2349 4.76507 25.1 12 25.1V24ZM0 12H1.1C1.1 5.9801 5.9801 1.1 12 1.1V0V-1.1C4.76507 -1.1 -1.1 4.76507 -1.1 12H0ZM12 0V1.1C18.0199 1.1 22.9 5.9801 22.9 12H24H25.1C25.1 4.76507 19.2349 -1.1 12 -1.1V0Z" fill="#1E1E1E" mask="url(#path-1-inside-1_192_189)"/>
</svg>
